<mxfile host="app.diagrams.net" modified="2020-12-05T16:51:26.098Z" agent="5.0 (Macintosh; Intel Mac OS X 11_0_1) AppleWebKit/537.36 (KHTML, like Gecko) Chrome/87.0.4280.88 Safari/537.36" etag="heyZQWxB_UbvJW-h2eUv" version="13.10.9" type="github">
  <diagram id="ujUPNPm-SbitqOQeh7i7" name="Page-1">
    <mxGraphModel dx="1394" dy="801" grid="1" gridSize="10" guides="1" tooltips="1" connect="1" arrows="1" fold="1" page="1" pageScale="1" pageWidth="850" pageHeight="1100" math="0" shadow="0">
      <root>
        <mxCell id="0" />
        <mxCell id="1" parent="0" />
        <mxCell id="-BotaJdeT2_oavy9sCpY-1" value="do you see this?" style="rounded=0;whiteSpace=wrap;html=1;fontSize=31;" parent="1" vertex="1">
          <mxGeometry x="285" y="40" width="280" height="310" as="geometry" />
        </mxCell>
        <mxCell id="ArvAZTS44U6t8O-VMQJw-1" value="YES" style="ellipse;whiteSpace=wrap;html=1;aspect=fixed;" vertex="1" parent="1">
          <mxGeometry x="380" y="370" width="80" height="80" as="geometry" />
        </mxCell>
      </root>
    </mxGraphModel>
  </diagram>
</mxfile>
